<?xml version="1.0" encoding="UTF-8"?>
<svg width="388px" height="66px" viewBox="0 0 388 66" version="1.1" xmlns="http://www.w3.org/2000/svg" xmlns:xlink="http://www.w3.org/1999/xlink">
    <title>ba_logo</title>
    <defs>
        <linearGradient x1="-1.84892139%" y1="49.8427999%" x2="100%" y2="50%" id="linearGradient-1">
            <stop stop-color="#FF421D" offset="0%"></stop>
            <stop stop-color="#FFA900" offset="100%"></stop>
        </linearGradient>
    </defs>
    <g id="Page-1" stroke="none" stroke-width="1" fill="none" fill-rule="evenodd">
        <g id="Desktop-HD" transform="translate(-224.000000, -17.000000)" fill-rule="nonzero">
            <g id="ba_logo" transform="translate(224.000000, 17.000000)">
                <path d="M93.9742893,48 C95.1108905,47.7373737 95.8812535,47.4222222 96.2853783,47.0545455 C96.967339,46.4505051 97.3840928,45.7151515 97.5356396,44.8484848 L98.6343541,38.5454545 C98.6343541,38.5191919 98.5964674,38.1515152 98.520694,37.4424242 C98.4954362,37.0222222 98.4070339,36.7070707 98.255487,36.4969697 C97.7755888,35.7616162 97.0683703,35.3939394 96.1338315,35.3939394 C96.9925969,35.3939394 97.7692743,35.0853535 98.4638639,34.4681818 C99.1584535,33.8510101 99.5815217,33.1090909 99.7330686,32.2424242 L100.945443,25.1515152 C101.09699,24.2848485 100.932814,23.5429293 100.452916,22.9257576 C99.9730177,22.3085859 99.3036859,22 98.4449206,22 L76.4706313,22 L72,48 L93.9742893,48 Z M83.0828064,32 C82.7192364,32 82.4344399,31.8627451 82.2284168,31.5882353 C82.0223938,31.3137255 81.9557393,30.9803922 82.0284533,30.5882353 L82.5374514,27.4117647 C82.6828794,26.4705882 83.1918774,26 84.0644455,26 L93.8808366,26 C94.2686446,26 94.5655601,26.1372549 94.7715832,26.4117647 C94.9776062,26.6862745 95.0442607,27.0196078 94.9715467,27.4117647 L94.4625486,30.5882353 C94.2928826,31.5294118 93.7717656,32 92.8991975,32 L83.0828064,32 Z M80.1180798,44 C79.7544766,44 79.4635941,43.8627451 79.2454322,43.5882353 C79.0272702,43.3137255 78.9545496,42.9803922 79.0272702,42.5882353 L79.5363147,39.4117647 C79.7059962,38.4705882 80.2271608,38 81.0998085,38 L90.9170948,38 C91.280698,38 91.5655205,38.1372549 91.7715623,38.4117647 C91.9776042,38.6862745 92.0442647,39.0196078 91.9715441,39.4117647 L91.4624996,42.5882353 C91.3170583,43.5294118 90.8080139,44 89.9353662,44 L80.1180798,44 Z M119.049549,48 C119.899049,48 120.677756,47.6922619 121.385673,47.0767857 C122.093589,46.4613095 122.524774,45.7214286 122.679229,44.8571429 L126,26 L120.594094,26 L117.968368,40.9285714 C117.89114,41.347619 117.678766,41.7142857 117.331243,42.0285714 C116.98372,42.3428571 116.591149,42.5 116.153528,42.5 L108.430804,42.5 C107.993183,42.5 107.652096,42.3428571 107.407544,42.0285714 C107.162991,41.7142857 107.079328,41.347619 107.156555,40.9285714 L109.782281,26 L104.376375,26 L101.055604,44.8571429 C100.901149,45.7214286 101.068475,46.4613095 101.557581,47.0767857 C102.046686,47.6922619 102.72886,48 103.604102,48 L119.049549,48 Z M131.515152,48 L134.193939,33.0714286 C134.272727,32.652381 134.489394,32.2857143 134.843939,31.9714286 C135.198485,31.6571429 135.59899,31.5 136.045455,31.5 L148.015152,31.5 L149,26 L133.090909,26 C132.224242,26 131.429798,26.3077381 130.707576,26.9232143 C129.985354,27.5386905 129.545455,28.2785714 129.387879,29.1428571 L126,48 L131.515152,48 Z M153.405906,48 L156.031632,33.0714286 C156.10886,32.6261905 156.321234,32.2529762 156.668757,31.9517857 C157.01628,31.6505952 157.408851,31.5 157.846472,31.5 L165.569196,31.5 C166.006817,31.5 166.347904,31.6571429 166.592456,31.9714286 C166.837009,32.2857143 166.920672,32.652381 166.843445,33.0714286 L164.217719,48 L169.623625,48 L172.944396,29.1428571 C173.098851,28.2785714 172.931525,27.5386905 172.442419,26.9232143 C171.953314,26.3077381 171.27114,26 170.395898,26 L154.950451,26 C154.100951,26 153.322244,26.3077381 152.614327,26.9232143 C151.906411,27.5386905 151.475226,28.2785714 151.320771,29.1428571 L148,48 L153.405906,48 Z M181.090909,31 L182,26 L176.909091,26 L176,31 L181.090909,31 Z M178,48 L181,33 L175.615385,33 L172.615385,48 L178,48 Z M187.405906,48 L190.031632,33.0714286 C190.10886,32.6261905 190.321234,32.2529762 190.668757,31.9517857 C191.01628,31.6505952 191.408851,31.5 191.846472,31.5 L199.569196,31.5 C200.006817,31.5 200.347904,31.6571429 200.592456,31.9714286 C200.837009,32.2857143 200.920672,32.652381 200.843445,33.0714286 L198.217719,48 L203.623625,48 L206.944396,29.1428571 C207.098851,28.2785714 206.931525,27.5386905 206.442419,26.9232143 C205.953314,26.3077381 205.27114,26 204.395898,26 L188.950451,26 C188.100951,26 187.322244,26.3077381 186.614327,26.9232143 C185.906411,27.5386905 185.475226,28.2785714 185.320771,29.1428571 L182,48 L187.405906,48 Z M226.396552,55 C227.043103,55 227.631466,54.7774123 228.161638,54.3322368 C228.69181,53.8870614 229.021552,53.3464912 229.150862,52.7105263 L234,26 L215.37931,26 C214.525862,26 213.743534,26.2989035 213.032328,26.8967105 C212.321121,27.4945175 211.887931,28.2131579 211.732759,29.0526316 L208.939655,44.3157895 C208.784483,45.1552632 208.952586,45.8739035 209.443966,46.4717105 C209.935345,47.0695175 210.62069,47.3684211 211.5,47.3684211 L224.689655,47.3684211 L224.456897,48.5131579 C224.37931,48.9201754 224.165948,49.2763158 223.81681,49.5815789 C223.467672,49.8868421 223.073276,50.0394737 222.633621,50.0394737 L207.892241,50.0394737 L207,55 L226.396552,55 Z M226.146546,41 L217.249969,41 C216.829853,41 216.502409,40.8571429 216.267639,40.5714286 C216.032868,40.2857143 215.952552,39.952381 216.02669,39.5714286 L217.361176,32.4285714 C217.435314,32.047619 217.639194,31.7142857 217.972816,31.4285714 C218.306438,31.1428571 218.683307,31 219.103423,31 L228,31 L226.146546,41 Z M249.30303,48 L251.390909,44.1787879 L261.869697,44.1787879 L262.69697,48 L269,48 L263.406061,22 L257.10303,22 L243,48 L249.30303,48 Z M261,38 L255,38 L259.275,30 L261,38 Z M280.090909,31 L281,26 L275.909091,26 L275,31 L280.090909,31 Z M276.384615,48 L279,33 L273.615385,33 L271,48 L276.384615,48 Z M285.436548,48 L288.077157,33.0714286 C288.154822,32.652381 288.368401,32.2857143 288.717893,31.9714286 C289.067386,31.6571429 289.462183,31.5 289.902284,31.5 L296.029188,31.5 L297,26 L286.989848,26 C286.135533,26 285.352411,26.3077381 284.640482,26.9232143 C283.928553,27.5386905 283.494924,28.2785714 283.339594,29.1428571 L280,48 L285.436548,48 Z M300.426357,48 L305,22 L299.573643,22 L295,48 L300.426357,48 Z M312.090909,31 L313,26 L307.909091,26 L307,31 L312.090909,31 Z M308.384615,48 L311,33 L305.615385,33 L303,48 L308.384615,48 Z M318.405906,48 L321.031632,33.0714286 C321.10886,32.6261905 321.321234,32.2529762 321.668757,31.9517857 C322.01628,31.6505952 322.408851,31.5 322.846472,31.5 L330.569196,31.5 C331.006817,31.5 331.347904,31.6571429 331.592456,31.9714286 C331.837009,32.2857143 331.920672,32.652381 331.843445,33.0714286 L329.217719,48 L334.623625,48 L337.944396,29.1428571 C338.098851,28.2785714 337.931525,27.5386905 337.442419,26.9232143 C336.953314,26.3077381 336.27114,26 335.395898,26 L319.950451,26 C319.100951,26 318.322244,26.3077381 317.614327,26.9232143 C316.906411,27.5386905 316.475226,28.2785714 316.320771,29.1428571 L313,48 L318.405906,48 Z M359.55683,48 L360.541268,42.5 L345.57781,42.5 C345.131531,42.5 344.783697,42.3428571 344.534306,42.0285714 C344.284915,41.7142857 344.199597,41.347619 344.278352,40.9285714 L344.357107,40.5357143 L357.745464,40.5357143 C358.611769,40.5357143 359.405882,40.2279762 360.127804,39.6125 C360.849725,38.9970238 361.289441,38.2571429 361.446951,37.3928571 L362.943296,29.1428571 C363.100806,28.2785714 362.930171,27.5386905 362.431389,26.9232143 C361.932607,26.3077381 361.236937,26 360.34438,26 L344.593372,26 C343.727067,26 342.932953,26.3077381 342.211032,26.9232143 C341.489111,27.5386905 341.049395,28.2785714 340.891885,29.1428571 L338.056704,44.8571429 C337.899194,45.7214286 338.069829,46.4613095 338.568611,47.0767857 C339.067393,47.6922619 339.763063,48 340.65562,48 L359.55683,48 Z M347.308637,34 C346.868802,34 346.52599,33.8666667 346.2802,33.6 C346.034411,33.3333333 345.950325,33.0222222 346.027942,32.6666667 L346.10556,32.3333333 C346.183178,31.9777778 346.396627,31.6666667 346.745907,31.4 C347.095188,31.1333333 347.489745,31 347.929579,31 L355.691363,31 C356.131198,31 356.47401,31.1333333 356.7198,31.4 C356.965589,31.6666667 357.049675,31.9777778 356.972058,32.3333333 L356.89444,32.6666667 C356.816822,33.0222222 356.603373,33.3333333 356.254093,33.6 C355.904812,33.8666667 355.510255,34 355.070421,34 L347.308637,34 Z M380.909091,48 C381.775758,48 382.570202,47.6922619 383.292424,47.0767857 C384.014646,46.4613095 384.454545,45.7214286 384.612121,44.8571429 L385.872727,37.9821429 L385.833333,38.1 L385.951515,37.3928571 C386.109091,36.5285714 385.938384,35.7886905 385.439394,35.1732143 C384.940404,34.5577381 384.257576,34.25 383.390909,34.25 L371.572727,34.25 C371.1,34.25 370.745455,34.0797619 370.509091,33.7392857 C370.29899,33.477381 370.220202,33.1892857 370.272727,32.875 C370.325253,32.5607143 370.522222,32.2529762 370.863636,31.9517857 C371.205051,31.6505952 371.59899,31.5 372.045455,31.5 L387.015152,31.5 L388,26 L369.090909,26 C368.224242,26 367.429798,26.3077381 366.707576,26.9232143 C365.985354,27.5386905 365.545455,28.2785714 365.387879,29.1428571 L364.048485,36.6071429 C363.890909,37.4714286 364.061616,38.2113095 364.560606,38.8267857 C365.059596,39.4422619 365.742424,39.75 366.609091,39.75 L378.545455,39.75 C379.018182,39.75 379.366162,39.9005952 379.589394,40.2017857 C379.812626,40.5029762 379.89798,40.8107143 379.845455,41.125 C379.819192,41.3607143 379.727273,41.5702381 379.569697,41.7535714 C379.149495,42.2511905 378.650505,42.5 378.072727,42.5 L362.984848,42.5 L362,48 L380.909091,48 Z" id="BurningAirlines" fill="url(#linearGradient-1)"></path>
                <g id="785116">
                    <path d="M0.898846638,32.1878906 C0.898846638,32.1878906 3.51531948,36.0185977 8.99920235,39.2611055 C8.99920235,39.2611055 5.02753937,5.80967578 30.9055009,0 C24.275456,24.2499727 39.3390598,31.0888359 44.8300569,18.2771016 C54,30.478207 47.037528,41.1230273 47.037528,41.1230273 C50.7975759,41.6628867 53.9560213,37.569082 53.9560213,37.569082 C53.9842194,38.0733633 54,38.581125 54,39.0924961 C54,53.9530664 41.9118127,66 27.0000647,66 C12.0883167,66 0,53.9530664 0,39.0923672 C0,36.7052813 0.313542128,34.3914141 0.898846638,32.1878906 Z" id="Path" fill="#FF6536"></path>
                    <path d="M53.9560214,37.569082 C53.9560214,37.569082 50.7975836,41.6628867 47.0375447,41.1230273 C47.0375447,41.1230273 54,30.478207 44.8300789,18.2771016 C39.3390949,31.0888359 24.2755272,24.2499727 30.9055562,0 C29.5195844,0.311179688 28.2198881,0.702152344 27,1.16247656 L27,66 C41.9117123,66 54,53.9530664 54,39.0923672 C54,38.5809961 53.9842195,38.0733633 53.9560214,37.569082 Z" id="Path" fill="#FF421D"></path>
                    <path d="M15,54.4513297 C15,60.8294394 20.3726296,66 27,66 C33.6273704,66 39,60.8294394 39,54.4513297 C39,51.0374678 37.4609368,47.9696473 35.0139823,45.8554272 C30.3743773,51.9215572 23.762737,42.7197356 28.9154068,36 C28.9154068,36 15,37.6782308 15,54.4513297 Z" id="Path" fill="#FBBF00"></path>
                    <path d="M39,54.4513297 C39,51.0374678 37.4609368,47.9696473 35.0139823,45.8554272 C30.3743773,51.9215572 23.762737,42.7197356 28.9154068,36 C28.9154068,36 28.1593114,36.0914619 27,36.4435586 L27,66 C33.6273704,66 39,60.8294394 39,54.4513297 Z" id="Path" fill="#FFA900"></path>
                </g>
            </g>
        </g>
    </g>
</svg>